<mxfile host="app.diagrams.net" agent="Mozilla/5.0 (Windows NT 10.0; Win64; x64) AppleWebKit/537.36 (KHTML, like Gecko) Chrome/136.0.0.0 Safari/537.36" version="27.0.3">
  <diagram name="Page-1" id="0XT-Thqxt43ZrvxBsIbW">
    <mxGraphModel dx="3292" dy="1860" grid="1" gridSize="10" guides="1" tooltips="1" connect="1" arrows="1" fold="1" page="1" pageScale="1" pageWidth="850" pageHeight="1100" math="0" shadow="0">
      <root>
        <mxCell id="0" />
        <mxCell id="1" parent="0" />
        <mxCell id="F2jWFCg-dutegQMfUFa8-1" value="" style="shape=umlLifeline;perimeter=lifelinePerimeter;whiteSpace=wrap;html=1;container=1;dropTarget=0;collapsible=0;recursiveResize=0;outlineConnect=0;portConstraint=eastwest;newEdgeStyle={&quot;curved&quot;:0,&quot;rounded&quot;:0};participant=umlActor;" vertex="1" parent="1">
          <mxGeometry x="-830" y="-40" width="30" height="1720" as="geometry" />
        </mxCell>
        <mxCell id="F2jWFCg-dutegQMfUFa8-2" value="SimpleReaderController" style="shape=umlLifeline;perimeter=lifelinePerimeter;whiteSpace=wrap;html=1;container=1;dropTarget=0;collapsible=0;recursiveResize=0;outlineConnect=0;portConstraint=eastwest;newEdgeStyle={&quot;curved&quot;:0,&quot;rounded&quot;:0};fontSize=14;fontStyle=1;fillColor=#dae8fc;strokeColor=#6c8ebf;" vertex="1" parent="1">
          <mxGeometry x="-440" y="-40" width="190" height="2080" as="geometry" />
        </mxCell>
        <mxCell id="F2jWFCg-dutegQMfUFa8-3" value="" style="html=1;points=[[0,0,0,0,5],[0,1,0,0,-5],[1,0,0,0,5],[1,1,0,0,-5]];perimeter=orthogonalPerimeter;outlineConnect=0;targetShapes=umlLifeline;portConstraint=eastwest;newEdgeStyle={&quot;curved&quot;:0,&quot;rounded&quot;:0};strokeColor=#000000;fillColor=#dae8fc;" vertex="1" parent="F2jWFCg-dutegQMfUFa8-2">
          <mxGeometry x="90" y="120" width="10" height="240" as="geometry" />
        </mxCell>
        <mxCell id="F2jWFCg-dutegQMfUFa8-33" value="" style="html=1;points=[[0,0,0,0,5],[0,1,0,0,-5],[1,0,0,0,5],[1,1,0,0,-5]];perimeter=orthogonalPerimeter;outlineConnect=0;targetShapes=umlLifeline;portConstraint=eastwest;newEdgeStyle={&quot;curved&quot;:0,&quot;rounded&quot;:0};strokeColor=#000000;fillColor=#dae8fc;" vertex="1" parent="F2jWFCg-dutegQMfUFa8-2">
          <mxGeometry x="90" y="410" width="10" height="80" as="geometry" />
        </mxCell>
        <mxCell id="F2jWFCg-dutegQMfUFa8-47" value="" style="html=1;points=[[0,0,0,0,5],[0,1,0,0,-5],[1,0,0,0,5],[1,1,0,0,-5]];perimeter=orthogonalPerimeter;outlineConnect=0;targetShapes=umlLifeline;portConstraint=eastwest;newEdgeStyle={&quot;curved&quot;:0,&quot;rounded&quot;:0};strokeColor=#000000;fillColor=#dae8fc;" vertex="1" parent="F2jWFCg-dutegQMfUFa8-2">
          <mxGeometry x="90" y="840" width="10" height="210" as="geometry" />
        </mxCell>
        <mxCell id="F2jWFCg-dutegQMfUFa8-7" value="SimpleReaderService" style="shape=umlLifeline;perimeter=lifelinePerimeter;whiteSpace=wrap;html=1;container=1;dropTarget=0;collapsible=0;recursiveResize=0;outlineConnect=0;portConstraint=eastwest;newEdgeStyle={&quot;curved&quot;:0,&quot;rounded&quot;:0};fontSize=14;fontStyle=1;fillColor=#dae8fc;strokeColor=#6c8ebf;" vertex="1" parent="1">
          <mxGeometry x="-170" y="-40" width="190" height="2210" as="geometry" />
        </mxCell>
        <mxCell id="F2jWFCg-dutegQMfUFa8-8" value="" style="html=1;points=[[0,0,0,0,5],[0,1,0,0,-5],[1,0,0,0,5],[1,1,0,0,-5]];perimeter=orthogonalPerimeter;outlineConnect=0;targetShapes=umlLifeline;portConstraint=eastwest;newEdgeStyle={&quot;curved&quot;:0,&quot;rounded&quot;:0};strokeColor=#000000;fillColor=#dae8fc;" vertex="1" parent="F2jWFCg-dutegQMfUFa8-7">
          <mxGeometry x="90" y="140" width="10" height="180" as="geometry" />
        </mxCell>
        <mxCell id="F2jWFCg-dutegQMfUFa8-37" value="" style="html=1;points=[[0,0,0,0,5],[0,1,0,0,-5],[1,0,0,0,5],[1,1,0,0,-5]];perimeter=orthogonalPerimeter;outlineConnect=0;targetShapes=umlLifeline;portConstraint=eastwest;newEdgeStyle={&quot;curved&quot;:0,&quot;rounded&quot;:0};strokeColor=#000000;fillColor=#dae8fc;" vertex="1" parent="F2jWFCg-dutegQMfUFa8-7">
          <mxGeometry x="90" y="460" width="10" height="40" as="geometry" />
        </mxCell>
        <mxCell id="F2jWFCg-dutegQMfUFa8-49" value="" style="html=1;points=[[0,0,0,0,5],[0,1,0,0,-5],[1,0,0,0,5],[1,1,0,0,-5]];perimeter=orthogonalPerimeter;outlineConnect=0;targetShapes=umlLifeline;portConstraint=eastwest;newEdgeStyle={&quot;curved&quot;:0,&quot;rounded&quot;:0};strokeColor=#000000;fillColor=#dae8fc;" vertex="1" parent="F2jWFCg-dutegQMfUFa8-7">
          <mxGeometry x="90" y="840" width="10" height="100" as="geometry" />
        </mxCell>
        <mxCell id="F2jWFCg-dutegQMfUFa8-56" value="" style="html=1;points=[[0,0,0,0,5],[0,1,0,0,-5],[1,0,0,0,5],[1,1,0,0,-5]];perimeter=orthogonalPerimeter;outlineConnect=0;targetShapes=umlLifeline;portConstraint=eastwest;newEdgeStyle={&quot;curved&quot;:0,&quot;rounded&quot;:0};strokeColor=#000000;fillColor=#dae8fc;" vertex="1" parent="F2jWFCg-dutegQMfUFa8-7">
          <mxGeometry x="90" y="990" width="10" height="60" as="geometry" />
        </mxCell>
        <mxCell id="F2jWFCg-dutegQMfUFa8-11" value="SimpleReaderHomepage" style="shape=umlLifeline;perimeter=lifelinePerimeter;whiteSpace=wrap;html=1;container=1;dropTarget=0;collapsible=0;recursiveResize=0;outlineConnect=0;portConstraint=eastwest;newEdgeStyle={&quot;curved&quot;:0,&quot;rounded&quot;:0};fontSize=14;fontStyle=1;fillColor=#dae8fc;strokeColor=#6c8ebf;" vertex="1" parent="1">
          <mxGeometry x="-680" y="-40" width="190" height="1720" as="geometry" />
        </mxCell>
        <mxCell id="F2jWFCg-dutegQMfUFa8-12" value="" style="html=1;points=[[0,0,0,0,5],[0,1,0,0,-5],[1,0,0,0,5],[1,1,0,0,-5]];perimeter=orthogonalPerimeter;outlineConnect=0;targetShapes=umlLifeline;portConstraint=eastwest;newEdgeStyle={&quot;curved&quot;:0,&quot;rounded&quot;:0};strokeColor=#000000;fillColor=#dae8fc;" vertex="1" parent="F2jWFCg-dutegQMfUFa8-11">
          <mxGeometry x="90" y="70" width="10" height="120" as="geometry" />
        </mxCell>
        <mxCell id="F2jWFCg-dutegQMfUFa8-13" value="clicks &quot;My Points&quot;" style="html=1;verticalAlign=bottom;startArrow=oval;startFill=1;endArrow=block;startSize=8;curved=0;rounded=0;fontSize=13;fontStyle=2;labelBackgroundColor=none;" edge="1" parent="1" target="F2jWFCg-dutegQMfUFa8-11">
          <mxGeometry width="60" relative="1" as="geometry">
            <mxPoint x="-810" y="70" as="sourcePoint" />
            <mxPoint x="-595" y="70" as="targetPoint" />
          </mxGeometry>
        </mxCell>
        <mxCell id="F2jWFCg-dutegQMfUFa8-14" value="showAvailablePoints()" style="html=1;verticalAlign=bottom;startArrow=oval;startFill=1;endArrow=block;startSize=8;curved=0;rounded=0;fontSize=13;fontStyle=2;labelBackgroundColor=none;" edge="1" parent="1" source="F2jWFCg-dutegQMfUFa8-12">
          <mxGeometry width="60" relative="1" as="geometry">
            <mxPoint x="-590" y="100" as="sourcePoint" />
            <mxPoint x="-345.5" y="100" as="targetPoint" />
            <mxPoint as="offset" />
          </mxGeometry>
        </mxCell>
        <mxCell id="F2jWFCg-dutegQMfUFa8-15" value="Simple Reader" style="text;html=1;align=center;verticalAlign=middle;resizable=0;points=[];autosize=1;strokeColor=none;fillColor=none;fontSize=14;fontStyle=1" vertex="1" parent="1">
          <mxGeometry x="-875" y="-70" width="120" height="30" as="geometry" />
        </mxCell>
        <mxCell id="F2jWFCg-dutegQMfUFa8-16" value="retrieveAvailablePoints()" style="html=1;verticalAlign=bottom;startArrow=oval;startFill=1;endArrow=block;startSize=8;curved=0;rounded=0;fontSize=13;fontStyle=2;labelBackgroundColor=none;" edge="1" parent="1" target="F2jWFCg-dutegQMfUFa8-8">
          <mxGeometry width="60" relative="1" as="geometry">
            <mxPoint x="-340" y="130" as="sourcePoint" />
            <mxPoint x="-105.5" y="130" as="targetPoint" />
            <mxPoint as="offset" />
          </mxGeometry>
        </mxCell>
        <mxCell id="F2jWFCg-dutegQMfUFa8-17" value="SimpleReaderMappper" style="shape=umlLifeline;perimeter=lifelinePerimeter;whiteSpace=wrap;html=1;container=1;dropTarget=0;collapsible=0;recursiveResize=0;outlineConnect=0;portConstraint=eastwest;newEdgeStyle={&quot;curved&quot;:0,&quot;rounded&quot;:0};fontSize=14;fontStyle=1;fillColor=#dae8fc;strokeColor=#6c8ebf;" vertex="1" parent="1">
          <mxGeometry x="80" y="-40" width="190" height="2210" as="geometry" />
        </mxCell>
        <mxCell id="F2jWFCg-dutegQMfUFa8-18" value="" style="html=1;points=[[0,0,0,0,5],[0,1,0,0,-5],[1,0,0,0,5],[1,1,0,0,-5]];perimeter=orthogonalPerimeter;outlineConnect=0;targetShapes=umlLifeline;portConstraint=eastwest;newEdgeStyle={&quot;curved&quot;:0,&quot;rounded&quot;:0};strokeColor=#000000;fillColor=#dae8fc;" vertex="1" parent="F2jWFCg-dutegQMfUFa8-17">
          <mxGeometry x="90" y="170" width="10" height="120" as="geometry" />
        </mxCell>
        <mxCell id="F2jWFCg-dutegQMfUFa8-53" value="" style="html=1;points=[[0,0,0,0,5],[0,1,0,0,-5],[1,0,0,0,5],[1,1,0,0,-5]];perimeter=orthogonalPerimeter;outlineConnect=0;targetShapes=umlLifeline;portConstraint=eastwest;newEdgeStyle={&quot;curved&quot;:0,&quot;rounded&quot;:0};strokeColor=#000000;fillColor=#dae8fc;" vertex="1" parent="F2jWFCg-dutegQMfUFa8-17">
          <mxGeometry x="90" y="890" width="10" height="40" as="geometry" />
        </mxCell>
        <mxCell id="F2jWFCg-dutegQMfUFa8-20" value="DBManager" style="shape=umlLifeline;perimeter=lifelinePerimeter;whiteSpace=wrap;html=1;container=1;dropTarget=0;collapsible=0;recursiveResize=0;outlineConnect=0;portConstraint=eastwest;newEdgeStyle={&quot;curved&quot;:0,&quot;rounded&quot;:0};fontSize=14;fontStyle=1;fillColor=#dae8fc;strokeColor=#6c8ebf;" vertex="1" parent="1">
          <mxGeometry x="310" y="-40" width="100" height="2250" as="geometry" />
        </mxCell>
        <mxCell id="F2jWFCg-dutegQMfUFa8-21" value="" style="html=1;points=[[0,0,0,0,5],[0,1,0,0,-5],[1,0,0,0,5],[1,1,0,0,-5]];perimeter=orthogonalPerimeter;outlineConnect=0;targetShapes=umlLifeline;portConstraint=eastwest;newEdgeStyle={&quot;curved&quot;:0,&quot;rounded&quot;:0};strokeColor=#000000;fillColor=#dae8fc;" vertex="1" parent="F2jWFCg-dutegQMfUFa8-20">
          <mxGeometry x="45" y="190" width="10" height="70" as="geometry" />
        </mxCell>
        <mxCell id="F2jWFCg-dutegQMfUFa8-23" value="findPoints()" style="html=1;verticalAlign=bottom;startArrow=oval;startFill=1;endArrow=block;startSize=8;curved=0;rounded=0;fontSize=13;fontStyle=2;labelBackgroundColor=none;" edge="1" parent="1">
          <mxGeometry width="60" relative="1" as="geometry">
            <mxPoint x="-70" y="149" as="sourcePoint" />
            <mxPoint x="174.5" y="149" as="targetPoint" />
            <mxPoint as="offset" />
          </mxGeometry>
        </mxCell>
        <mxCell id="F2jWFCg-dutegQMfUFa8-24" value="find Points" style="html=1;verticalAlign=bottom;startArrow=oval;startFill=1;endArrow=block;startSize=8;curved=0;rounded=0;fontSize=13;fontStyle=2;labelBackgroundColor=none;" edge="1" parent="1">
          <mxGeometry width="60" relative="1" as="geometry">
            <mxPoint x="180" y="170" as="sourcePoint" />
            <mxPoint x="355" y="170" as="targetPoint" />
            <mxPoint as="offset" />
          </mxGeometry>
        </mxCell>
        <mxCell id="F2jWFCg-dutegQMfUFa8-25" value="return Points" style="html=1;verticalAlign=bottom;endArrow=open;dashed=1;endSize=8;curved=0;rounded=0;fontStyle=2;fontSize=13;" edge="1" parent="1">
          <mxGeometry x="-0.0021" relative="1" as="geometry">
            <mxPoint x="359.49999999999955" y="200" as="sourcePoint" />
            <mxPoint x="179.99999999999955" y="200" as="targetPoint" />
            <mxPoint as="offset" />
          </mxGeometry>
        </mxCell>
        <mxCell id="F2jWFCg-dutegQMfUFa8-26" value="return Points" style="html=1;verticalAlign=bottom;endArrow=open;dashed=1;endSize=8;curved=0;rounded=0;fontStyle=2;fontSize=13;" edge="1" parent="1" target="F2jWFCg-dutegQMfUFa8-7">
          <mxGeometry x="-0.0021" relative="1" as="geometry">
            <mxPoint x="169.49999999999955" y="220" as="sourcePoint" />
            <mxPoint x="-10.000000000000455" y="220" as="targetPoint" />
            <mxPoint as="offset" />
          </mxGeometry>
        </mxCell>
        <mxCell id="F2jWFCg-dutegQMfUFa8-27" value="return Points" style="html=1;verticalAlign=bottom;endArrow=open;dashed=1;endSize=8;curved=0;rounded=0;fontStyle=2;fontSize=13;" edge="1" parent="1" target="F2jWFCg-dutegQMfUFa8-2">
          <mxGeometry x="-0.0021" relative="1" as="geometry">
            <mxPoint x="-80.50000000000045" y="240" as="sourcePoint" />
            <mxPoint x="-260.00000000000045" y="240" as="targetPoint" />
            <mxPoint as="offset" />
          </mxGeometry>
        </mxCell>
        <mxCell id="F2jWFCg-dutegQMfUFa8-28" value="AvailablePoints" style="shape=umlLifeline;perimeter=lifelinePerimeter;whiteSpace=wrap;html=1;container=1;dropTarget=0;collapsible=0;recursiveResize=0;outlineConnect=0;portConstraint=eastwest;newEdgeStyle={&quot;curved&quot;:0,&quot;rounded&quot;:0};fontSize=14;fontStyle=1;fillColor=#dae8fc;strokeColor=#6c8ebf;" vertex="1" parent="1">
          <mxGeometry x="440" y="-40" width="130" height="2250" as="geometry" />
        </mxCell>
        <mxCell id="F2jWFCg-dutegQMfUFa8-29" value="" style="html=1;points=[[0,0,0,0,5],[0,1,0,0,-5],[1,0,0,0,5],[1,1,0,0,-5]];perimeter=orthogonalPerimeter;outlineConnect=0;targetShapes=umlLifeline;portConstraint=eastwest;newEdgeStyle={&quot;curved&quot;:0,&quot;rounded&quot;:0};strokeColor=#000000;fillColor=#dae8fc;" vertex="1" parent="F2jWFCg-dutegQMfUFa8-28">
          <mxGeometry x="60" y="330" width="10" height="120" as="geometry" />
        </mxCell>
        <mxCell id="F2jWFCg-dutegQMfUFa8-31" value="call" style="html=1;verticalAlign=bottom;startArrow=oval;startFill=1;endArrow=block;startSize=8;curved=0;rounded=0;fontSize=13;fontStyle=2;labelBackgroundColor=none;" edge="1" parent="1" target="F2jWFCg-dutegQMfUFa8-28">
          <mxGeometry width="60" relative="1" as="geometry">
            <mxPoint x="-340" y="310" as="sourcePoint" />
            <mxPoint x="-80" y="310" as="targetPoint" />
            <mxPoint as="offset" />
          </mxGeometry>
        </mxCell>
        <mxCell id="F2jWFCg-dutegQMfUFa8-32" value="clicks &quot;Reedem Points&quot;" style="html=1;verticalAlign=bottom;startArrow=oval;startFill=1;endArrow=block;startSize=8;curved=0;rounded=0;fontSize=13;fontStyle=2;labelBackgroundColor=none;" edge="1" parent="1">
          <mxGeometry width="60" relative="1" as="geometry">
            <mxPoint x="-810" y="346" as="sourcePoint" />
            <mxPoint x="504.5" y="346" as="targetPoint" />
          </mxGeometry>
        </mxCell>
        <mxCell id="F2jWFCg-dutegQMfUFa8-35" value="reedemPoints()" style="html=1;verticalAlign=bottom;startArrow=oval;startFill=1;endArrow=block;startSize=8;curved=0;rounded=0;fontSize=13;fontStyle=2;labelBackgroundColor=none;" edge="1" parent="1">
          <mxGeometry width="60" relative="1" as="geometry">
            <mxPoint x="500" y="391" as="sourcePoint" />
            <mxPoint x="-340" y="391" as="targetPoint" />
            <mxPoint as="offset" />
          </mxGeometry>
        </mxCell>
        <mxCell id="F2jWFCg-dutegQMfUFa8-36" value="reedemPointsCheck()" style="html=1;verticalAlign=bottom;startArrow=oval;startFill=1;endArrow=block;startSize=8;curved=0;rounded=0;fontSize=13;fontStyle=2;labelBackgroundColor=none;" edge="1" parent="1">
          <mxGeometry width="60" relative="1" as="geometry">
            <mxPoint x="-340" y="430" as="sourcePoint" />
            <mxPoint x="-80" y="430" as="targetPoint" />
            <mxPoint as="offset" />
          </mxGeometry>
        </mxCell>
        <mxCell id="F2jWFCg-dutegQMfUFa8-38" value="alt" style="shape=umlFrame;whiteSpace=wrap;html=1;pointerEvents=0;" vertex="1" parent="1">
          <mxGeometry x="-520" y="460" width="1070" height="310" as="geometry" />
        </mxCell>
        <mxCell id="F2jWFCg-dutegQMfUFa8-39" value="Reedem Points Suceessfully" style="text;html=1;align=center;verticalAlign=middle;resizable=0;points=[];autosize=1;fontSize=14;fontStyle=2;fillColor=#f8cecc;strokeColor=#b85450;" vertex="1" parent="1">
          <mxGeometry x="-445" y="510" width="200" height="30" as="geometry" />
        </mxCell>
        <mxCell id="F2jWFCg-dutegQMfUFa8-40" value="" style="html=1;points=[[0,0,0,0,5],[0,1,0,0,-5],[1,0,0,0,5],[1,1,0,0,-5]];perimeter=orthogonalPerimeter;outlineConnect=0;targetShapes=umlLifeline;portConstraint=eastwest;newEdgeStyle={&quot;curved&quot;:0,&quot;rounded&quot;:0};strokeColor=#000000;fillColor=#dae8fc;" vertex="1" parent="1">
          <mxGeometry x="-350" y="560" width="10" height="40" as="geometry" />
        </mxCell>
        <mxCell id="F2jWFCg-dutegQMfUFa8-41" value="" style="html=1;points=[[0,0,0,0,5],[0,1,0,0,-5],[1,0,0,0,5],[1,1,0,0,-5]];perimeter=orthogonalPerimeter;outlineConnect=0;targetShapes=umlLifeline;portConstraint=eastwest;newEdgeStyle={&quot;curved&quot;:0,&quot;rounded&quot;:0};strokeColor=#000000;fillColor=#dae8fc;" vertex="1" parent="1">
          <mxGeometry x="500" y="561" width="10" height="40" as="geometry" />
        </mxCell>
        <mxCell id="F2jWFCg-dutegQMfUFa8-42" value="send confirmation message" style="html=1;verticalAlign=bottom;startArrow=oval;startFill=1;endArrow=block;startSize=8;curved=0;rounded=0;fontSize=13;fontStyle=2;labelBackgroundColor=none;" edge="1" parent="1">
          <mxGeometry width="60" relative="1" as="geometry">
            <mxPoint x="-340" y="579.3299999999999" as="sourcePoint" />
            <mxPoint x="505" y="579.3299999999999" as="targetPoint" />
            <mxPoint as="offset" />
          </mxGeometry>
        </mxCell>
        <mxCell id="F2jWFCg-dutegQMfUFa8-43" value="Reedem Points Denied" style="text;html=1;align=center;verticalAlign=middle;resizable=0;points=[];autosize=1;fontSize=14;fontStyle=2;fillColor=#f8cecc;strokeColor=#b85450;" vertex="1" parent="1">
          <mxGeometry x="-425" y="650" width="170" height="30" as="geometry" />
        </mxCell>
        <mxCell id="F2jWFCg-dutegQMfUFa8-44" value="" style="html=1;points=[[0,0,0,0,5],[0,1,0,0,-5],[1,0,0,0,5],[1,1,0,0,-5]];perimeter=orthogonalPerimeter;outlineConnect=0;targetShapes=umlLifeline;portConstraint=eastwest;newEdgeStyle={&quot;curved&quot;:0,&quot;rounded&quot;:0};strokeColor=#000000;fillColor=#dae8fc;" vertex="1" parent="1">
          <mxGeometry x="-350" y="710" width="10" height="40" as="geometry" />
        </mxCell>
        <mxCell id="F2jWFCg-dutegQMfUFa8-45" value="" style="html=1;points=[[0,0,0,0,5],[0,1,0,0,-5],[1,0,0,0,5],[1,1,0,0,-5]];perimeter=orthogonalPerimeter;outlineConnect=0;targetShapes=umlLifeline;portConstraint=eastwest;newEdgeStyle={&quot;curved&quot;:0,&quot;rounded&quot;:0};strokeColor=#000000;fillColor=#dae8fc;" vertex="1" parent="1">
          <mxGeometry x="500" y="711" width="10" height="40" as="geometry" />
        </mxCell>
        <mxCell id="F2jWFCg-dutegQMfUFa8-46" value="send error message" style="html=1;verticalAlign=bottom;startArrow=oval;startFill=1;endArrow=block;startSize=8;curved=0;rounded=0;fontSize=13;fontStyle=2;labelBackgroundColor=none;" edge="1" parent="1">
          <mxGeometry width="60" relative="1" as="geometry">
            <mxPoint x="-340" y="729.3299999999999" as="sourcePoint" />
            <mxPoint x="505" y="729.3299999999999" as="targetPoint" />
            <mxPoint as="offset" />
          </mxGeometry>
        </mxCell>
        <mxCell id="F2jWFCg-dutegQMfUFa8-48" value="createVoucher()" style="html=1;verticalAlign=bottom;startArrow=oval;startFill=1;endArrow=block;startSize=8;curved=0;rounded=0;fontSize=13;fontStyle=2;labelBackgroundColor=none;" edge="1" parent="1">
          <mxGeometry width="60" relative="1" as="geometry">
            <mxPoint x="-340" y="820" as="sourcePoint" />
            <mxPoint x="-80" y="820" as="targetPoint" />
            <mxPoint as="offset" />
          </mxGeometry>
        </mxCell>
        <mxCell id="F2jWFCg-dutegQMfUFa8-50" value="Voucher" style="shape=umlLifeline;perimeter=lifelinePerimeter;whiteSpace=wrap;html=1;container=1;dropTarget=0;collapsible=0;recursiveResize=0;outlineConnect=0;portConstraint=eastwest;newEdgeStyle={&quot;curved&quot;:0,&quot;rounded&quot;:0};fontSize=14;fontStyle=1;fillColor=#dae8fc;strokeColor=#6c8ebf;" vertex="1" parent="1">
          <mxGeometry x="600" y="-40" width="90" height="2250" as="geometry" />
        </mxCell>
        <mxCell id="F2jWFCg-dutegQMfUFa8-51" value="" style="html=1;points=[[0,0,0,0,5],[0,1,0,0,-5],[1,0,0,0,5],[1,1,0,0,-5]];perimeter=orthogonalPerimeter;outlineConnect=0;targetShapes=umlLifeline;portConstraint=eastwest;newEdgeStyle={&quot;curved&quot;:0,&quot;rounded&quot;:0};strokeColor=#000000;fillColor=#dae8fc;" vertex="1" parent="F2jWFCg-dutegQMfUFa8-50">
          <mxGeometry x="40" y="845" width="10" height="155" as="geometry" />
        </mxCell>
        <mxCell id="F2jWFCg-dutegQMfUFa8-52" value="create" style="html=1;verticalAlign=bottom;endArrow=open;dashed=1;endSize=8;curved=0;rounded=0;fontStyle=2;fontSize=13;" edge="1" parent="1">
          <mxGeometry x="-0.0021" relative="1" as="geometry">
            <mxPoint x="-70" y="835" as="sourcePoint" />
            <mxPoint x="640" y="835" as="targetPoint" />
            <mxPoint as="offset" />
          </mxGeometry>
        </mxCell>
        <mxCell id="F2jWFCg-dutegQMfUFa8-54" value="saveVoucher()" style="html=1;verticalAlign=bottom;startArrow=oval;startFill=1;endArrow=block;startSize=8;curved=0;rounded=0;fontSize=13;fontStyle=2;labelBackgroundColor=none;" edge="1" parent="1" target="F2jWFCg-dutegQMfUFa8-53">
          <mxGeometry width="60" relative="1" as="geometry">
            <mxPoint x="-70" y="870" as="sourcePoint" />
            <mxPoint x="190" y="870" as="targetPoint" />
            <mxPoint as="offset" />
          </mxGeometry>
        </mxCell>
        <mxCell id="F2jWFCg-dutegQMfUFa8-55" value="send successful message" style="html=1;verticalAlign=bottom;startArrow=oval;startFill=1;endArrow=block;startSize=8;curved=0;rounded=0;fontSize=13;fontStyle=2;labelBackgroundColor=none;" edge="1" parent="1" target="F2jWFCg-dutegQMfUFa8-50">
          <mxGeometry width="60" relative="1" as="geometry">
            <mxPoint x="-340" y="930" as="sourcePoint" />
            <mxPoint x="505" y="930" as="targetPoint" />
            <mxPoint as="offset" />
          </mxGeometry>
        </mxCell>
        <mxCell id="F2jWFCg-dutegQMfUFa8-58" value="checkOlderCoupons()" style="html=1;verticalAlign=bottom;startArrow=oval;startFill=1;endArrow=block;startSize=8;curved=0;rounded=0;fontSize=13;fontStyle=2;labelBackgroundColor=none;" edge="1" parent="1">
          <mxGeometry width="60" relative="1" as="geometry">
            <mxPoint x="-340" y="970" as="sourcePoint" />
            <mxPoint x="-80" y="970" as="targetPoint" />
            <mxPoint as="offset" />
          </mxGeometry>
        </mxCell>
        <mxCell id="F2jWFCg-dutegQMfUFa8-59" value="alt" style="shape=umlFrame;whiteSpace=wrap;html=1;pointerEvents=0;" vertex="1" parent="1">
          <mxGeometry x="-520" y="1010" width="1070" height="310" as="geometry" />
        </mxCell>
        <mxCell id="F2jWFCg-dutegQMfUFa8-60" value="Voucher Coupon Completed" style="text;html=1;align=center;verticalAlign=middle;resizable=0;points=[];autosize=1;fontSize=14;fontStyle=2;fillColor=#f8cecc;strokeColor=#b85450;" vertex="1" parent="1">
          <mxGeometry x="-460" y="1060" width="200" height="30" as="geometry" />
        </mxCell>
        <mxCell id="F2jWFCg-dutegQMfUFa8-61" value="Εxpired Voucher" style="text;html=1;align=center;verticalAlign=middle;resizable=0;points=[];autosize=1;fontSize=14;fontStyle=2;fillColor=#f8cecc;strokeColor=#b85450;" vertex="1" parent="1">
          <mxGeometry x="-425" y="1190" width="130" height="30" as="geometry" />
        </mxCell>
        <mxCell id="F2jWFCg-dutegQMfUFa8-62" value="" style="html=1;points=[[0,0,0,0,5],[0,1,0,0,-5],[1,0,0,0,5],[1,1,0,0,-5]];perimeter=orthogonalPerimeter;outlineConnect=0;targetShapes=umlLifeline;portConstraint=eastwest;newEdgeStyle={&quot;curved&quot;:0,&quot;rounded&quot;:0};strokeColor=#000000;fillColor=#dae8fc;" vertex="1" parent="1">
          <mxGeometry x="-350" y="1110" width="10" height="40" as="geometry" />
        </mxCell>
        <mxCell id="F2jWFCg-dutegQMfUFa8-63" value="" style="html=1;points=[[0,0,0,0,5],[0,1,0,0,-5],[1,0,0,0,5],[1,1,0,0,-5]];perimeter=orthogonalPerimeter;outlineConnect=0;targetShapes=umlLifeline;portConstraint=eastwest;newEdgeStyle={&quot;curved&quot;:0,&quot;rounded&quot;:0};strokeColor=#000000;fillColor=#dae8fc;" vertex="1" parent="1">
          <mxGeometry x="-80" y="1100" width="10" height="60" as="geometry" />
        </mxCell>
        <mxCell id="F2jWFCg-dutegQMfUFa8-64" value="sendEmail()" style="html=1;verticalAlign=bottom;startArrow=oval;startFill=1;endArrow=block;startSize=8;curved=0;rounded=0;fontSize=13;fontStyle=2;labelBackgroundColor=none;" edge="1" parent="1">
          <mxGeometry width="60" relative="1" as="geometry">
            <mxPoint x="-340" y="1139.44" as="sourcePoint" />
            <mxPoint x="-80" y="1139.44" as="targetPoint" />
            <mxPoint as="offset" />
          </mxGeometry>
        </mxCell>
        <mxCell id="F2jWFCg-dutegQMfUFa8-65" value="" style="html=1;points=[[0,0,0,0,5],[0,1,0,0,-5],[1,0,0,0,5],[1,1,0,0,-5]];perimeter=orthogonalPerimeter;outlineConnect=0;targetShapes=umlLifeline;portConstraint=eastwest;newEdgeStyle={&quot;curved&quot;:0,&quot;rounded&quot;:0};strokeColor=#000000;fillColor=#dae8fc;" vertex="1" parent="1">
          <mxGeometry x="-350" y="1240" width="10" height="60" as="geometry" />
        </mxCell>
        <mxCell id="F2jWFCg-dutegQMfUFa8-66" value="" style="html=1;points=[[0,0,0,0,5],[0,1,0,0,-5],[1,0,0,0,5],[1,1,0,0,-5]];perimeter=orthogonalPerimeter;outlineConnect=0;targetShapes=umlLifeline;portConstraint=eastwest;newEdgeStyle={&quot;curved&quot;:0,&quot;rounded&quot;:0};strokeColor=#000000;fillColor=#dae8fc;" vertex="1" parent="1">
          <mxGeometry x="-80" y="1240" width="10" height="60" as="geometry" />
        </mxCell>
        <mxCell id="F2jWFCg-dutegQMfUFa8-67" value="expiredVoucher()" style="html=1;verticalAlign=bottom;startArrow=oval;startFill=1;endArrow=block;startSize=8;curved=0;rounded=0;fontSize=13;fontStyle=2;labelBackgroundColor=none;" edge="1" parent="1">
          <mxGeometry width="60" relative="1" as="geometry">
            <mxPoint x="-340" y="1259.44" as="sourcePoint" />
            <mxPoint x="-80" y="1259.44" as="targetPoint" />
            <mxPoint as="offset" />
          </mxGeometry>
        </mxCell>
        <mxCell id="F2jWFCg-dutegQMfUFa8-68" value="sendEmail()" style="html=1;verticalAlign=bottom;startArrow=oval;startFill=1;endArrow=block;startSize=8;curved=0;rounded=0;fontSize=13;fontStyle=2;labelBackgroundColor=none;" edge="1" parent="1">
          <mxGeometry width="60" relative="1" as="geometry">
            <mxPoint x="-340" y="1290" as="sourcePoint" />
            <mxPoint x="-80" y="1290" as="targetPoint" />
            <mxPoint as="offset" />
          </mxGeometry>
        </mxCell>
      </root>
    </mxGraphModel>
  </diagram>
</mxfile>
